<?xml version="1.0" encoding="utf-8"?>
<!-- Generator: Adobe Illustrator 17.0.0, SVG Export Plug-In . SVG Version: 6.00 Build 0)  -->
<!DOCTYPE svg PUBLIC "-//W3C//DTD SVG 1.1//EN" "http://www.w3.org/Graphics/SVG/1.1/DTD/svg11.dtd">
<svg version="1.1" id="Camada_1" xmlns="http://www.w3.org/2000/svg" xmlns:xlink="http://www.w3.org/1999/xlink" x="0px" y="0px"
	 width="406.81px" height="217.649px" viewBox="0 0 406.81 217.649" enable-background="new 0 0 406.81 217.649"
	 xml:space="preserve">
<g>
	<g>
		<path fill-rule="evenodd" clip-rule="evenodd" fill="#9A999E" d="M46.551,162.252h20.586l-9.977-32.711L46.551,162.252
			L46.551,162.252z M1.547,194.318l35.964-93.001h40.79l33.552,93.001H77.019l-2.757-9.121H38.967l-2.969,9.121H1.547L1.547,194.318
			z M135.357,158.281c0,4.83,1.34,8.693,4.04,11.591c2.701,2.919,6.243,4.379,10.667,4.379c4.481,0,8.062-1.46,10.743-4.379
			c2.662-2.898,4.002-6.761,4.002-11.591c0-4.872-1.34-8.735-4.002-11.633c-2.681-2.898-6.262-4.336-10.743-4.336
			c-4.424,0-7.967,1.438-10.667,4.336C136.697,149.546,135.357,153.409,135.357,158.281L135.357,158.281z M106.631,217.649h28.726
			v-29.254c3.486,2.618,7.162,4.55,11.088,5.838c3.906,1.267,8.177,1.911,12.812,1.911c10.916,0,19.609-3.413,26.063-10.26
			c6.454-6.825,9.671-16.033,9.671-27.602c0-11.483-3.198-20.67-9.594-27.559c-6.396-6.89-14.956-10.346-25.7-10.346
			c-5.113,0-9.786,0.73-14.018,2.189c-4.232,1.481-8.043,3.67-11.452,6.611l-0.21-6.976h-27.385V217.649L106.631,217.649z
			 M253.711,160.728c-2.987,1.674-8.12,2.79-15.378,3.327c-2.087,0.129-3.696,0.257-4.826,0.387
			c-4.213,0.429-7.086,1.115-8.598,2.082c-1.513,0.966-2.279,2.446-2.279,4.464c0,2.254,0.9,4.013,2.719,5.258
			c1.82,1.224,4.385,1.846,7.718,1.846c6.319,0,11.375-1.417,15.148-4.272c3.773-2.854,5.668-6.632,5.668-11.333
			c0-0.493,0-0.858-0.019-1.094C253.844,161.157,253.787,160.942,253.711,160.728L253.711,160.728z M253.826,184.445
			c-3.581,4.228-7.909,7.319-12.984,9.272c-5.075,1.953-11.489,2.919-19.284,2.919c-10.494,0-18.404-1.975-23.669-5.903
			c-5.267-3.949-7.909-9.873-7.909-17.815c0-2.597,0.306-5.001,0.9-7.19c0.594-2.211,1.436-4.099,2.528-5.688
			c2.202-3.069,5.151-5.344,8.828-6.826c3.696-1.502,10.628-2.618,20.854-3.37c3.352-0.257,7.737-0.472,13.118-0.687
			c10.858-0.515,16.277-2.189,16.277-5.087c0-1.975-1.149-3.542-3.428-4.744c-2.279-1.18-5.381-1.781-9.307-1.781
			c-5.094,0-8.713,0.537-10.896,1.631c-2.164,1.094-3.428,2.941-3.811,5.581H195.36c0.594-8.757,4.251-15.025,10.973-18.824
			c6.703-3.799,17.771-5.688,33.188-5.688c8.406,0,15.511,0.666,21.256,1.975c5.764,1.331,10.131,3.284,13.08,5.881
			c3.217,2.812,5.496,6.182,6.856,10.153c1.341,3.949,2.011,9.616,2.011,16.999v27.859c0,2.683,0.211,4.765,0.651,6.203
			c0.421,1.438,1.149,2.597,2.202,3.434v1.566h-29.894c-0.536-1.417-0.957-2.962-1.264-4.614
			C254.094,188.029,253.902,186.291,253.826,184.445L253.826,184.445z M286.655,194.318v-93.752h29.281v93.752H286.655
			L286.655,194.318z M374.943,160.728c-2.987,1.674-8.12,2.79-15.378,3.327c-2.087,0.129-3.696,0.257-4.826,0.387
			c-4.213,0.429-7.085,1.115-8.598,2.082c-1.513,0.966-2.279,2.446-2.279,4.464c0,2.254,0.9,4.013,2.719,5.258
			c1.82,1.224,4.386,1.846,7.718,1.846c6.319,0,11.375-1.417,15.147-4.272c3.773-2.854,5.669-6.632,5.669-11.333
			c0-0.493,0-0.858-0.019-1.094C375.078,161.157,375.02,160.942,374.943,160.728L374.943,160.728z M375.058,184.445
			c0.077,1.846,0.268,3.584,0.594,5.259c0.306,1.652,0.727,3.197,1.264,4.614h29.894v-1.566c-1.053-0.837-1.781-1.996-2.202-3.434
			c-0.441-1.438-0.651-3.52-0.651-6.203v-27.859c0-7.383-0.67-13.05-2.011-16.999c-1.36-3.971-3.639-7.341-6.856-10.153
			c-2.949-2.597-7.315-4.55-13.079-5.881c-5.746-1.309-12.85-1.975-21.257-1.975c-15.416,0-26.485,1.889-33.188,5.688
			c-6.722,3.799-10.379,10.066-10.973,18.824h29.683c0.383-2.641,1.647-4.487,3.811-5.581c2.183-1.094,5.802-1.631,10.897-1.631
			c3.926,0,7.028,0.601,9.307,1.781c2.279,1.202,3.428,2.769,3.428,4.744c0,2.897-5.42,4.572-16.277,5.087
			c-5.382,0.215-9.767,0.429-13.118,0.687c-10.226,0.751-17.158,1.868-20.854,3.37c-3.677,1.481-6.626,3.757-8.828,6.826
			c-1.091,1.589-1.934,3.477-2.528,5.688c-0.594,2.189-0.9,4.594-0.9,7.19c0,7.941,2.643,13.865,7.909,17.815
			c5.267,3.928,13.176,5.903,23.67,5.903c7.794,0,14.21-0.966,19.285-2.919C367.149,191.764,371.477,188.674,375.058,184.445z"/>
		<g>
			<path fill-rule="evenodd" clip-rule="evenodd" fill="#BF0411" d="M373.511,182.873c-3.581,4.228-7.909,7.319-12.984,9.272
				c-5.075,1.953-11.49,2.919-19.284,2.919c-10.494,0-18.403-1.974-23.669-5.902c-5.267-3.949-7.91-9.873-7.91-17.815
				c0-2.597,0.306-5.001,0.9-7.19c0.594-2.21,1.436-4.099,2.527-5.688c2.203-3.069,5.152-5.344,8.829-6.825
				c3.695-1.502,10.628-2.619,20.854-3.37c3.351-0.257,7.737-0.472,13.118-0.687c10.858-0.515,16.278-2.189,16.278-5.087
				c0-1.975-1.149-3.542-3.428-4.743c-2.279-1.181-5.381-1.781-9.307-1.781c-5.094,0-8.713,0.537-10.897,1.631
				c-2.164,1.094-3.428,2.94-3.811,5.58h-29.683c0.594-8.757,4.251-15.025,10.973-18.824c6.702-3.799,17.771-5.688,33.187-5.688
				c8.407,0,15.512,0.665,21.257,1.975c5.764,1.331,10.13,3.284,13.08,5.881c3.217,2.812,5.496,6.182,6.856,10.152
				c1.34,3.949,2.011,9.615,2.011,16.999v27.86c0,2.683,0.211,4.765,0.651,6.202c0.422,1.438,1.149,2.597,2.203,3.434v1.567h-29.894
				c-0.536-1.417-0.957-2.962-1.264-4.615C373.779,186.458,373.588,184.719,373.511,182.873L373.511,182.873z M373.396,159.156
				c-2.988,1.674-8.12,2.791-15.378,3.327c-2.087,0.129-3.696,0.258-4.826,0.386c-4.213,0.429-7.086,1.116-8.599,2.082
				c-1.513,0.966-2.279,2.447-2.279,4.464c0,2.254,0.9,4.014,2.72,5.259c1.819,1.223,4.385,1.846,7.717,1.846
				c6.32,0,11.375-1.416,15.148-4.271c3.773-2.855,5.669-6.632,5.669-11.333c0-0.494,0-0.859-0.02-1.095
				C373.53,159.585,373.473,159.371,373.396,159.156z"/>
			<rect x="285.108" y="98.994" fill-rule="evenodd" clip-rule="evenodd" fill="#BF0411" width="29.28" height="93.753"/>
			<path fill-rule="evenodd" clip-rule="evenodd" fill="#BF0411" d="M252.278,182.873c-3.581,4.228-7.91,7.319-12.984,9.272
				c-5.075,1.953-11.49,2.919-19.284,2.919c-10.495,0-18.404-1.974-23.67-5.902c-5.267-3.949-7.91-9.873-7.91-17.815
				c0-2.597,0.306-5.001,0.9-7.19c0.594-2.21,1.436-4.099,2.528-5.688c2.202-3.069,5.152-5.344,8.828-6.825
				c3.696-1.502,10.628-2.619,20.855-3.37c3.351-0.257,7.736-0.472,13.118-0.687c10.858-0.515,16.278-2.189,16.278-5.087
				c0-1.975-1.15-3.542-3.428-4.743c-2.279-1.181-5.381-1.781-9.307-1.781c-5.094,0-8.713,0.537-10.897,1.631
				c-2.164,1.094-3.428,2.94-3.811,5.58h-29.683c0.594-8.757,4.252-15.025,10.973-18.824c6.703-3.799,17.772-5.688,33.188-5.688
				c8.407,0,15.512,0.665,21.257,1.975c5.764,1.331,10.131,3.284,13.08,5.881c3.217,2.812,5.496,6.182,6.856,10.152
				c1.341,3.949,2.011,9.615,2.011,16.999v27.86c0,2.683,0.211,4.765,0.651,6.202c0.421,1.438,1.149,2.597,2.202,3.434v1.567
				h-29.894c-0.536-1.417-0.957-2.962-1.264-4.615C252.546,186.458,252.355,184.719,252.278,182.873L252.278,182.873z
				 M252.163,159.156c-2.987,1.674-8.12,2.791-15.377,3.327c-2.087,0.129-3.696,0.258-4.826,0.386
				c-4.213,0.429-7.086,1.116-8.599,2.082c-1.513,0.966-2.279,2.447-2.279,4.464c0,2.254,0.901,4.014,2.72,5.259
				c1.819,1.223,4.386,1.846,7.717,1.846c6.32,0,11.376-1.416,15.148-4.271c3.772-2.855,5.668-6.632,5.668-11.333
				c0-0.494,0-0.859-0.02-1.095C252.297,159.585,252.24,159.371,252.163,159.156z"/>
			<path fill-rule="evenodd" clip-rule="evenodd" fill="#BF0411" d="M105.084,216.078v-95.449h27.385l0.21,6.976
				c3.409-2.94,7.22-5.13,11.452-6.611c4.232-1.459,8.905-2.189,14.018-2.189c10.743,0,19.303,3.455,25.7,10.345
				c6.396,6.89,9.594,16.077,9.594,27.56c0,11.568-3.217,20.777-9.671,27.602c-6.454,6.847-15.148,10.26-26.064,10.26
				c-4.634,0-8.905-0.644-12.811-1.91c-3.926-1.288-7.602-3.22-11.088-5.839v29.255H105.084L105.084,216.078z M133.809,156.71
				c0,4.829,1.34,8.693,4.041,11.59c2.7,2.919,6.243,4.379,10.666,4.379c4.481,0,8.062-1.46,10.743-4.379
				c2.662-2.897,4.003-6.761,4.003-11.59c0-4.873-1.341-8.736-4.003-11.633c-2.681-2.898-6.262-4.336-10.743-4.336
				c-4.423,0-7.966,1.438-10.666,4.336C135.149,147.974,133.809,151.837,133.809,156.71z"/>
			<path fill-rule="evenodd" clip-rule="evenodd" fill="#BF0411" d="M0,192.747l35.964-93.002h40.79l33.551,93.002H75.471
				l-2.757-9.122H37.42l-2.968,9.122H0L0,192.747z M45.003,160.68H65.59l-9.977-32.711L45.003,160.68z"/>
		</g>
		<path fill-rule="evenodd" clip-rule="evenodd" fill="#FFFFFF" d="M25.404,99.689c4.273,8.336,12.079,14.642,17.504,12.405
			c5.407-0.77,13.032-9.001,18.376-13.309c2.46,3.705,4.793,7.731,7.253,11.436c-1.021,15.401-3.258,30.601,5.124,43.688
			c5.449,6.861,19.795,10.255,31.142,3.877c7.533-3.396,9.999-10.068,9.807-19.069c-1.769-5.721-2.108-11.815-1.37-18.013
			c1.527-0.689,2.76-1.199,4.287-1.889c13.382,7.499,26.458,13.787,39.21,11.054c3.867-5.523,5.66-12.692,6.179-20.876
			c-0.393-5.38-0.361-11.071-2.545-14.306c-6.222-3.631-23.39-6.431-33.944-3.106c-0.741-2.145-0.714-6.663-3.15-11.966
			c-1.56-0.664,17.629-4.113,19.392-10.3c5.078-13.036-7.301-24.245-14.943-23.103c-6.705,1.9-16.498,5.494-20.574,6.556
			c-1.68-3.118-1.164-8.041-3.891-8.49c0.864-6.34,0.117-15.585-5.78-19.013c4.719,0.1,10.346-5.528,5.924-16.874
			c-5.039-9.805-17.82-11.926-21.223-1.471c-3.401-0.927-17.191-5.074-27.19,6.408c-2.922-12.248-17.584-8.495-20.369-0.201
			c-2.549,5.093-4.044,18.944,8.823,24.693c0.366,9.616,3.97,14.966,10.024,20.311c-0.294,2.682-0.139,3.533-0.064,4.97
			c-1.918,0.974-5.808,5.034-11.064,8.729c-3.835,2.696-6.382,5.167-10.616,6.923C24.645,85.009,22.584,89.31,25.404,99.689z"/>
		
			<path fill-rule="evenodd" clip-rule="evenodd" fill="#BF0411" stroke="#000000" stroke-width="0.6721" stroke-miterlimit="22.9256" d="
			M74.519,50.959c-2.972-0.131-7.364-3.318-9.144-0.509c-1.812,4.563,3.531,2.035,4.954,13.402c0.01,0.076,1.869,5.048,6.494,4.372
			c4.04-0.97,3.028-3.957,6.897-5.734c0.598,2.099,0.581,5.135-0.335,9.54c-0.451,2.507,0.139,4.196,3.019,4.089
			c1.192-0.193,2.385-0.155,3.578,0.114c1.409,0.804,2.984,2.281,4.697,4.316c1.366,0.95,2.363,0.497,1.459-1.936
			c-1.023-4.96-2.055-9.574-2.018-14.533c2.246,0.917,4.418,5.212,6.818,9.708c1.336,1.878,3.278,2.392,5.371,1.195
			c2.895-3.033,5.819-4.72,9.168-4.368c-4.415-5.62-10.589-5.647-13.471-9.652c2.492-0.29,7.085,1.438,8.328-0.063
			c1.197-4.087-4.078-5.464-4.585-12.607c-0.724-3.363-1.827-4.189-2.854-3.861C98.201,56.147,86.216,59.27,74.519,50.959z"/>
		
			<path fill-rule="evenodd" clip-rule="evenodd" fill="none" stroke="#000000" stroke-width="0.669" stroke-miterlimit="22.9256" d="
			M72.9,105.517c9.011-6.471,19.085-6.471,30.221,0c5.222,3.923,8.255,9.333,10.302,15.42c-0.658,4.085-0.546,8.754,0.345,14.017
			c2.269,7.896-0.262,16.377-4.015,19.623c-10.317,7.8-21.114,8.661-32.046,2.803c-7.975-4.624-9.521-15.232-10.299-30.489
			l1.029-16.82l-7.03-11.269c-6.371,3.797-12.132,14.013-22.162,13.725c-13.823-4.296-22.096-24.407-7.212-33.644
			c7.099-3.047,14.198-10.511,21.293-15.767v-5.256c-6.091-4.2-9.317-10.778-10.099-20.366c-6.677-2.09-10.157-8.557-10.339-16.018
			c0.316-6.549,2.171-11.498,7.553-14.719c2.015-0.908,7.455-2.741,11.55,0.886c1.967,2.272,2.102,3.716,2.949,5.57
			C61.99,5.546,71.194,3.05,82.111,7.238c1.222-5.093,5.964-8.539,12.51-6.637c8.422,2.763,11.452,11.228,9.971,18.404
			c-1.942,6.205-5.822,7.213-9.982,5.093c-6.433-3.457-16.259-1.684-21.58,3.952c-4.771,9.791-3.895,17.444,1.589,23.151
			c7.67,4.735,15.088,6.426,21.976,1.403c7.753-5.548,8.633-13.507,4.808-23.128c-1.738-3.346-2.909-3.62-6.073-5.053"/>
		
			<path fill-rule="evenodd" clip-rule="evenodd" fill="none" stroke="#000000" stroke-width="0.6721" stroke-miterlimit="22.9256" d="
			M58.72,63.468c14.064,8.402,15.157,20.165,2.749,35.295"/>
		
			<path fill-rule="evenodd" clip-rule="evenodd" fill="none" stroke="#000000" stroke-width="0.6718" stroke-miterlimit="22.9256" d="
			M113.641,120.507c17.926-6.393,16.87-42.526-2.793-60.506"/>
		
			<path fill-rule="evenodd" clip-rule="evenodd" fill="none" stroke="#000000" stroke-width="0.682" stroke-miterlimit="22.9256" d="
			M107.219,52.783l20.052-6.618c10.379-0.504,19.021,10.544,15.537,23.32c-5.389,6.66-13.065,6.696-19.364,10.163"/>
		
			<path fill-rule="evenodd" clip-rule="evenodd" fill="none" stroke="#000000" stroke-width="0.6718" stroke-miterlimit="22.9256" d="
			M126.674,91.514c11.169-2.496,22.571-1.918,33.744,3.151c5.086,9.293,1.947,28.86-3.956,35.217
			c-13.344,2.847-25.522-3.822-38.862-11.148"/>
		
			<path fill-rule="evenodd" clip-rule="evenodd" fill="none" stroke="#000000" stroke-width="0.6721" stroke-miterlimit="22.9256" d="
			M53.512,58.01c4.965,3.413,10.114,4.072,15.078,3.286"/>
		
			<path fill-rule="evenodd" clip-rule="evenodd" fill="none" stroke="#000000" stroke-width="0.6721" stroke-miterlimit="22.9256" d="
			M82.545,7.644c2.947,1.763,5.603,3.825,8.019,6.138"/>
		<path fill-rule="evenodd" clip-rule="evenodd" fill="#D8D9DD" d="M51.637,17.33c-3.878,3.357-5.352,8.933-7.329,14.236
			c-4.41-0.378-8.11-3.903-6.997-12.232c0.724-6.191,5.19-10.19,9.929-9.125C49.747,10.914,51.458,12.689,51.637,17.33z"/>
		<path fill-rule="evenodd" clip-rule="evenodd" fill="#D8D9DD" d="M29.228,86.597c-4.061,8.771,1.315,18.481,9.48,20.705
			c5.319,1.12,9.378-2.46,8.718-8.35c-0.833-7.493-5.561-15.497-11.621-15.726C33.33,82.921,31.101,83.548,29.228,86.597z"/>
		<path fill-rule="evenodd" clip-rule="evenodd" fill="#D8D9DD" d="M76.598,130.247c7.593-5.526,19.316-5.666,27.59,3.425
			c14.199,18.299-11.482,28.917-25.463,16.945C72.432,145.728,71.453,134.746,76.598,130.247z"/>
		<path fill-rule="evenodd" clip-rule="evenodd" stroke="#000000" stroke-width="0.216" stroke-miterlimit="22.9256" d="
			M68.376,20.755c1.634-0.314,3.249,0.995,3.594,2.916c0.345,1.921-0.708,3.742-2.342,4.056c-1.634,0.314-3.248-0.995-3.593-2.916
			C65.69,22.89,66.743,21.069,68.376,20.755z"/>
		<path fill-rule="evenodd" clip-rule="evenodd" stroke="#000000" stroke-width="0.216" stroke-miterlimit="22.9256" d="
			M90.391,25.692c2.238,0,4.064,2.412,4.064,5.368c0,2.956-1.826,5.368-4.064,5.368c-2.239,0-4.065-2.412-4.065-5.368
			C86.326,28.104,88.152,25.692,90.391,25.692z"/>
		<path fill-rule="evenodd" clip-rule="evenodd" d="M85.72,22.108c1.751-0.112,3.574-0.117,5.637,0.394
			c0.313-3.187,0.062-4.052-1.408-5.193C86.702,16.206,85.219,19.246,85.72,22.108z"/>
		
			<path fill-rule="evenodd" clip-rule="evenodd" fill="none" stroke="#000000" stroke-width="0.6721" stroke-miterlimit="22.9256" d="
			M85.231,45.798c0,5.691,2.674,6.047,8.034,1.073"/>
		
			<path fill-rule="evenodd" clip-rule="evenodd" fill="none" stroke="#000000" stroke-width="0.9303" stroke-miterlimit="22.9256" d="
			M93.075,42.479l0.191,4.392c5.777,2.611,6.599,1.562,6.599-4.13"/>
		<path fill-rule="evenodd" clip-rule="evenodd" fill="#FFFFFF" d="M86.036,57.451v0.304v0.507v0.507v0.709v0.507
			c0,0.152,0,0.456,0,0.608c0,0.05-0.05,0.253-0.05,0.304c0,0.101-0.15,0.203-0.2,0.253c0,0.051-0.15,0.101-0.15,0.152l-0.05,0.051
			l-0.05,0.101v0.051c0,0.101-0.1,0.203-0.1,0.304l0.05,0.101l0.299,0.051c0.05,0,0.2,0,0.25,0l0.15-0.152
			c0-0.051,0.05-0.101,0.05-0.152c0-0.102,0-0.304,0.05-0.355l0.05-0.101l0.05-0.051c0.05-0.051,0.2-0.253,0.25-0.304v-0.102v-0.051
			c0-0.051,0.1-0.304,0.1-0.355c0-0.203,0-0.507,0-0.709c0-0.304-0.05-0.71-0.05-1.014c0-0.152,0-0.456,0-0.608v-0.101l-0.05-0.101
			v-0.051c0-0.051-0.15-0.203-0.15-0.253c-0.05,0-0.15-0.051-0.15-0.102c-0.05,0-0.15,0-0.2,0l0.05,0.051v0.152l-0.05,0.051
			C86.136,57.654,85.986,57.654,86.036,57.451z"/>
		<path fill-rule="evenodd" clip-rule="evenodd" fill="#FFFFFF" d="M97.142,54.485l0.075,0.279l0.05,0.304l0.05,0.304l0.3,0.405
			v0.304l0.05,0.102v0.101v0.051l0.05,0.05v0.304c0,0.254,0.1,0.608,0.1,0.913c0,0.051,0,0.254,0,0.304c0,0.051,0,0.152,0,0.203
			v0.203v0.101v0.101v0.101c0,0.253,0.05,0.558,0.05,0.811c0.05,0.051,0.15,0.152,0.15,0.203v0.101l0.05,0.101l0.1,0.102l0.15,0.101
			c0.05,0,0.15,0,0.15,0l0.1,0.051h0.05h0.1c0.05,0,0.2-0.101,0.249-0.152l0.05-0.102c0-0.051,0-0.152,0-0.152
			c0-0.051-0.1-0.203-0.1-0.203l-0.1-0.051l-0.1-0.101l-0.15-0.152v-0.101v-0.102V58.87l-0.05-0.101v-0.102v-0.101v-0.101v-0.102
			c0-0.051,0-0.101,0-0.152c0-0.405-0.05-0.811-0.05-1.217c0-0.304-0.05-0.71-0.05-1.014c0-0.152-0.05-0.355-0.05-0.507
			c0-0.05-0.05-0.203-0.05-0.203V55.17v-0.05v-0.051c0-0.101-0.05-0.203-0.1-0.304v-0.102h-0.1l-0.1-0.101
			c-0.05,0-0.15-0.05-0.2-0.05l-0.05-0.102c-0.1,0-0.2-0.102-0.249-0.152h-0.05c-0.05,0-0.2,0-0.25,0l-0.05,0.051
			c0,0.051-0.05,0.102-0.05,0.102v0.051C97.117,54.561,97.167,54.612,97.142,54.485z"/>
		<path fill-rule="evenodd" clip-rule="evenodd" fill="#FFFFFF" d="M96.668,62.926c0.15-0.253,0.25-0.304,0.25-0.608
			c0-0.051,0-0.152,0-0.203c0-0.051,0-0.203,0-0.254c0-0.05-0.05-0.101-0.1-0.152c0,0-0.1-0.102-0.15-0.102l-0.1-0.051h-0.1h-0.1
			c-0.05,0-0.15,0.102-0.15,0.102l-0.1,0.101c-0.05,0-0.1,0.101-0.15,0.101c-0.1,0.051-0.299,0.203-0.349,0.203h-0.05l-0.1,0.101
			l-0.1,0.051l-0.05,0.051l-0.05,0.051l-0.299,0.051l-0.3,0.101l-0.1,0.102h-0.05c-0.15,0-0.449,0.102-0.599,0.203l-0.1,0.051
			c-0.2,0.102-0.399,0.152-0.599,0.203c-0.1,0-0.4,0.152-0.499,0.152c-0.2,0-0.499,0.051-0.699,0.051c-0.2,0-0.449,0-0.599,0.051
			l-0.3,0.051h-0.299h-0.3c-0.249,0-0.599,0.05-0.898,0.05l0.399,0.051l0.599,0.051h0.3l0.299,0.051h0.399h0.399h0.1h0.299h0.05h0.3
			c0.399,0,0.898,0,1.298,0c0.3,0,0.699,0.051,0.998,0.051c0.15,0,0.349,0,0.499,0h0.2h0.05h0.1v-0.051c0,0,0.25-0.101,0.3-0.101
			c0-0.051,0.05-0.101,0.1-0.101c0-0.051,0.05-0.152,0.05-0.152l0.1-0.101l0.05-0.05h0.05L96.668,62.926
			C96.718,62.926,96.768,62.875,96.668,62.926z"/>
		<path fill-rule="evenodd" clip-rule="evenodd" fill="#FFFFFF" d="M108.15,56.621c-0.005,0.05,0.133,0.627,0.117,0.778l0.05,0.005
			l-0.006,0.05l0.044,0.056l-0.005,0.05l0.017,0.308l-0.011,0.101l0.044,0.056l0.022,0.257c-0.005,0.05,0.039,0.106,0.028,0.207
			l0.028,0.207l-0.011,0.101l-0.011,0.101l-0.005,0.05L108.445,59c-0.005,0.05-0.027,0.252-0.033,0.302l-0.05-0.006l-0.061,0.095
			l-0.105,0.039l-0.309,0.068c-0.05-0.006-0.204,0.028-0.209,0.078l-0.055,0.045l-0.309,0.068c-0.05-0.005-0.259,0.073-0.309,0.068
			c-0.099-0.011-0.363,0.112-0.513,0.096c-0.149-0.017-0.402,0.006-0.501-0.005c-0.05-0.006-0.209,0.078-0.209,0.078l-0.099-0.011
			l-0.099-0.011c-0.05-0.005-0.16,0.084-0.209,0.079c-0.105,0.039-0.11,0.09-0.209,0.079c-0.005,0.05-0.165,0.134-0.171,0.185
			l0.05,0.006l-0.011,0.101l-0.016,0.151l0.044,0.056l0.099,0.011l0.099,0.011l0.055-0.045c0.253-0.023,0.606-0.034,0.904-0.001
			c0.298,0.033,0.7,0.027,0.998,0.06c0.298,0.033,0.695,0.077,0.992,0.111c0.099,0.011,0.298,0.033,0.347,0.039l0.055-0.045
			l0.298,0.033l0.05,0.005c0.05,0.006,0.248,0.028,0.298,0.033l0.105-0.039l0.055-0.045l0.055-0.045l0.055-0.045l0.06-0.095
			c0.011-0.101,0.066-0.146,0.126-0.241l0.006-0.05l0.005-0.05c0.011-0.101,0.022-0.202,0.033-0.302
			c-0.044-0.056-0.077-0.213-0.116-0.319c0.005-0.05-0.127-0.218-0.122-0.269l-0.039-0.106c0.005-0.05-0.033-0.157-0.033-0.157
			l-0.039-0.106l-0.044-0.056c0.011-0.101-0.028-0.207-0.116-0.319l0.011-0.101c0,0-0.127-0.218-0.171-0.274l0.005-0.05
			c0.005-0.05-0.127-0.218-0.171-0.274c0.005-0.05-0.028-0.207-0.028-0.207l-0.039-0.106c0.005-0.05-0.033-0.157-0.033-0.157
			l0.005-0.051l-0.044-0.056c0.005-0.051-0.022-0.258-0.017-0.308c0.005-0.05-0.083-0.163-0.078-0.213
			c-0.05-0.006-0.094-0.062-0.088-0.112l-0.044-0.056l-0.05-0.006l-0.05-0.005l-0.05-0.006c-0.05-0.005-0.149-0.016-0.199-0.022
			l-0.011,0.101C108.199,56.627,108.144,56.672,108.15,56.621z"/>
	</g>
	<text transform="matrix(1.5313 0 0 1 3.0692 205.1039)"><tspan x="0" y="0" font-family="'FranklinGothic-DemiCond'" font-size="10.0123">A</tspan><tspan x="5.252" y="0" font-family="'FranklinGothic-DemiCond'" font-size="10.0123">SSOCIAÇÃ</tspan><tspan x="46.069" y="0" font-family="'FranklinGothic-DemiCond'" font-size="10.0123">O</tspan><tspan x="51.696" y="0" font-family="'FranklinGothic-DemiCond'" font-size="10.0123"> </tspan><tspan x="53.768" y="0" font-family="'FranklinGothic-DemiCond'" font-size="10.0123">DO</tspan><tspan x="65.289" y="0" font-family="'FranklinGothic-DemiCond'" font-size="10.0123">S</tspan><tspan x="70.407" y="0" font-family="'FranklinGothic-DemiCond'" font-size="10.0123"> </tspan><tspan x="72.479" y="0" font-family="'FranklinGothic-DemiCond'" font-size="10.0123">PAI</tspan><tspan x="85.844" y="0" font-family="'FranklinGothic-DemiCond'" font-size="10.0123">S</tspan><tspan x="90.962" y="0" font-family="'FranklinGothic-DemiCond'" font-size="10.0123"> </tspan><tspan x="93.034" y="0" font-family="'FranklinGothic-DemiCond'" font-size="10.0123">E</tspan><tspan x="97.81" y="0" font-family="'FranklinGothic-DemiCond'" font-size="10.0123"> </tspan><tspan x="99.882" y="0" font-family="'FranklinGothic-DemiCond'" font-size="10.0123">AMIGO</tspan><tspan x="127.33" y="0" font-family="'FranklinGothic-DemiCond'" font-size="10.0123">S</tspan><tspan x="132.448" y="0" font-family="'FranklinGothic-DemiCond'" font-size="10.0123"> </tspan><tspan x="134.52" y="0" font-family="'FranklinGothic-DemiCond'" font-size="10.0123">DO</tspan><tspan x="146.04" y="0" font-family="'FranklinGothic-DemiCond'" font-size="10.0123">S</tspan><tspan x="151.159" y="0" font-family="'FranklinGothic-DemiCond'" font-size="10.0123"> </tspan><tspan x="153.231" y="0" font-family="'FranklinGothic-DemiCond'" font-size="10.0123">LEUCÊMICO</tspan><tspan x="200.825" y="0" font-family="'FranklinGothic-DemiCond'" font-size="10.0123">S</tspan><tspan x="205.944" y="0" font-family="'FranklinGothic-DemiCond'" font-size="10.0123"> </tspan><tspan x="208.015" y="0" font-family="'FranklinGothic-DemiCond'" font-size="10.0123">D</tspan><tspan x="213.776" y="0" font-family="'FranklinGothic-DemiCond'" font-size="10.0123">E</tspan><tspan x="218.552" y="0" font-family="'FranklinGothic-DemiCond'" font-size="10.0123"> </tspan><tspan x="220.624" y="0" font-family="'FranklinGothic-DemiCond'" font-size="10.0123">ALAGOA</tspan><tspan x="252.472" y="0" font-family="'FranklinGothic-DemiCond'" font-size="10.0123">S </tspan></text>
</g>
</svg>
